<mxfile host="65bd71144e">
    <diagram id="ZsX20NDwiUNxM7VAy6Y8" name="Page-1">
        <mxGraphModel dx="840" dy="1073" grid="1" gridSize="10" guides="1" tooltips="1" connect="1" arrows="1" fold="1" page="1" pageScale="1" pageWidth="850" pageHeight="1100" math="0" shadow="0">
            <root>
                <mxCell id="0"/>
                <mxCell id="1" parent="0"/>
                <mxCell id="14" value="" style="whiteSpace=wrap;html=1;aspect=fixed;" parent="1" vertex="1">
                    <mxGeometry x="140" y="30" width="560" height="560" as="geometry"/>
                </mxCell>
                <mxCell id="2" value="&lt;font style=&quot;font-size: 32px&quot;&gt;Header&lt;/font&gt;" style="rounded=0;whiteSpace=wrap;html=1;" parent="1" vertex="1">
                    <mxGeometry x="160" y="60" width="520" height="60" as="geometry"/>
                </mxCell>
                <mxCell id="3" value="Subheader / Description" style="rounded=0;whiteSpace=wrap;html=1;" parent="1" vertex="1">
                    <mxGeometry x="160" y="120" width="520" height="40" as="geometry"/>
                </mxCell>
                <mxCell id="5" value="" style="rounded=0;whiteSpace=wrap;html=1;" parent="1" vertex="1">
                    <mxGeometry x="160" y="180" width="520" height="320" as="geometry"/>
                </mxCell>
                <mxCell id="6" value="" style="rounded=1;whiteSpace=wrap;html=1;" parent="1" vertex="1">
                    <mxGeometry x="180" y="200" width="140" height="110" as="geometry"/>
                </mxCell>
                <mxCell id="23" value="" style="rounded=1;whiteSpace=wrap;html=1;" parent="1" vertex="1">
                    <mxGeometry x="180" y="350" width="140" height="110" as="geometry"/>
                </mxCell>
                <mxCell id="24" value="" style="rounded=1;whiteSpace=wrap;html=1;" parent="1" vertex="1">
                    <mxGeometry x="350" y="350" width="140" height="110" as="geometry"/>
                </mxCell>
                <mxCell id="25" value="" style="rounded=1;whiteSpace=wrap;html=1;" parent="1" vertex="1">
                    <mxGeometry x="350" y="200" width="140" height="110" as="geometry"/>
                </mxCell>
                <mxCell id="26" value="" style="rounded=1;whiteSpace=wrap;html=1;" parent="1" vertex="1">
                    <mxGeometry x="520" y="200" width="140" height="110" as="geometry"/>
                </mxCell>
                <mxCell id="27" value="" style="rounded=1;whiteSpace=wrap;html=1;" parent="1" vertex="1">
                    <mxGeometry x="520" y="350" width="140" height="110" as="geometry"/>
                </mxCell>
                <mxCell id="30" value="Title" style="rounded=0;whiteSpace=wrap;html=1;fillColor=none;" parent="1" vertex="1">
                    <mxGeometry x="360" y="200" width="120" height="30" as="geometry"/>
                </mxCell>
                <mxCell id="31" value="Title" style="rounded=0;whiteSpace=wrap;html=1;fillColor=none;" parent="1" vertex="1">
                    <mxGeometry x="190" y="200" width="120" height="30" as="geometry"/>
                </mxCell>
                <mxCell id="32" value="Title" style="rounded=0;whiteSpace=wrap;html=1;fillColor=none;" parent="1" vertex="1">
                    <mxGeometry x="530" y="200" width="120" height="30" as="geometry"/>
                </mxCell>
                <mxCell id="33" value="Title" style="rounded=0;whiteSpace=wrap;html=1;fillColor=none;" parent="1" vertex="1">
                    <mxGeometry x="190" y="350" width="120" height="30" as="geometry"/>
                </mxCell>
                <mxCell id="34" value="Title" style="rounded=0;whiteSpace=wrap;html=1;fillColor=none;" parent="1" vertex="1">
                    <mxGeometry x="360" y="350" width="120" height="30" as="geometry"/>
                </mxCell>
                <mxCell id="35" value="Title" style="rounded=0;whiteSpace=wrap;html=1;fillColor=none;" parent="1" vertex="1">
                    <mxGeometry x="530" y="350" width="120" height="30" as="geometry"/>
                </mxCell>
                <mxCell id="39" value="Code" style="rounded=0;whiteSpace=wrap;html=1;fillColor=none;" parent="1" vertex="1">
                    <mxGeometry x="190" y="230" width="120" height="70" as="geometry"/>
                </mxCell>
                <mxCell id="41" value="Description" style="rounded=0;whiteSpace=wrap;html=1;fillColor=none;" parent="1" vertex="1">
                    <mxGeometry x="190" y="230" width="120" height="20" as="geometry"/>
                </mxCell>
                <mxCell id="42" value="Description" style="rounded=0;whiteSpace=wrap;html=1;fillColor=none;" parent="1" vertex="1">
                    <mxGeometry x="360" y="230" width="120" height="20" as="geometry"/>
                </mxCell>
                <mxCell id="43" value="Code" style="rounded=0;whiteSpace=wrap;html=1;fillColor=none;" parent="1" vertex="1">
                    <mxGeometry x="360" y="250" width="120" height="50" as="geometry"/>
                </mxCell>
                <mxCell id="44" value="Description" style="rounded=0;whiteSpace=wrap;html=1;fillColor=none;" parent="1" vertex="1">
                    <mxGeometry x="530" y="230" width="120" height="20" as="geometry"/>
                </mxCell>
                <mxCell id="45" value="Code" style="rounded=0;whiteSpace=wrap;html=1;fillColor=none;" parent="1" vertex="1">
                    <mxGeometry x="530" y="250" width="120" height="50" as="geometry"/>
                </mxCell>
                <mxCell id="46" value="" style="rounded=0;whiteSpace=wrap;html=1;fillColor=none;" parent="1" vertex="1">
                    <mxGeometry x="190" y="380" width="120" height="20" as="geometry"/>
                </mxCell>
                <mxCell id="47" value="" style="rounded=0;whiteSpace=wrap;html=1;fillColor=none;" parent="1" vertex="1">
                    <mxGeometry x="190" y="380" width="120" height="70" as="geometry"/>
                </mxCell>
                <mxCell id="48" value="" style="rounded=0;whiteSpace=wrap;html=1;fillColor=none;" parent="1" vertex="1">
                    <mxGeometry x="360" y="380" width="120" height="20" as="geometry"/>
                </mxCell>
                <mxCell id="49" value="" style="rounded=0;whiteSpace=wrap;html=1;fillColor=none;" parent="1" vertex="1">
                    <mxGeometry x="360" y="380" width="120" height="70" as="geometry"/>
                </mxCell>
                <mxCell id="50" value="" style="rounded=0;whiteSpace=wrap;html=1;fillColor=none;" parent="1" vertex="1">
                    <mxGeometry x="530" y="380" width="120" height="20" as="geometry"/>
                </mxCell>
                <mxCell id="51" value="" style="rounded=0;whiteSpace=wrap;html=1;fillColor=none;" parent="1" vertex="1">
                    <mxGeometry x="530" y="380" width="120" height="70" as="geometry"/>
                </mxCell>
                <mxCell id="87" value="Footer" style="rounded=0;whiteSpace=wrap;html=1;fontSize=12;fillColor=none;" parent="1" vertex="1">
                    <mxGeometry x="160" y="520" width="520" height="50" as="geometry"/>
                </mxCell>
                <mxCell id="88" value="" style="group" parent="1" vertex="1" connectable="0">
                    <mxGeometry x="140" y="620" width="560" height="910" as="geometry"/>
                </mxCell>
                <mxCell id="80" value="" style="rounded=0;whiteSpace=wrap;html=1;fillColor=default;" parent="88" vertex="1">
                    <mxGeometry width="560" height="910" as="geometry"/>
                </mxCell>
                <mxCell id="53" value="&lt;font style=&quot;font-size: 32px&quot;&gt;Header&lt;/font&gt;" style="rounded=0;whiteSpace=wrap;html=1;" parent="88" vertex="1">
                    <mxGeometry x="25" y="27.33000000000004" width="510" height="95.67" as="geometry"/>
                </mxCell>
                <mxCell id="54" value="Subheader / Description" style="rounded=0;whiteSpace=wrap;html=1;" parent="88" vertex="1">
                    <mxGeometry x="25" y="109.33000000000004" width="510" height="54.67" as="geometry"/>
                </mxCell>
                <mxCell id="56" value="" style="rounded=1;whiteSpace=wrap;html=1;" parent="88" vertex="1">
                    <mxGeometry x="61" y="218.66666666666663" width="196" height="150.33333333333331" as="geometry"/>
                </mxCell>
                <mxCell id="57" value="" style="rounded=1;whiteSpace=wrap;html=1;" parent="88" vertex="1">
                    <mxGeometry x="61" y="423.6666666666665" width="196" height="150.33333333333331" as="geometry"/>
                </mxCell>
                <mxCell id="58" value="" style="rounded=1;whiteSpace=wrap;html=1;" parent="88" vertex="1">
                    <mxGeometry x="299" y="423.6666666666665" width="196" height="150.33333333333331" as="geometry"/>
                </mxCell>
                <mxCell id="59" value="" style="rounded=1;whiteSpace=wrap;html=1;" parent="88" vertex="1">
                    <mxGeometry x="299" y="218.66666666666663" width="196" height="150.33333333333331" as="geometry"/>
                </mxCell>
                <mxCell id="60" value="" style="rounded=1;whiteSpace=wrap;html=1;" parent="88" vertex="1">
                    <mxGeometry x="299" y="615" width="196" height="150.33333333333331" as="geometry"/>
                </mxCell>
                <mxCell id="61" value="" style="rounded=1;whiteSpace=wrap;html=1;" parent="88" vertex="1">
                    <mxGeometry x="61" y="615" width="196" height="150.33333333333331" as="geometry"/>
                </mxCell>
                <mxCell id="62" value="Title" style="rounded=0;whiteSpace=wrap;html=1;fillColor=none;" parent="88" vertex="1">
                    <mxGeometry x="313" y="218.66666666666663" width="168" height="41" as="geometry"/>
                </mxCell>
                <mxCell id="63" value="Title" style="rounded=0;whiteSpace=wrap;html=1;fillColor=none;" parent="88" vertex="1">
                    <mxGeometry x="75" y="218.66666666666663" width="168" height="41" as="geometry"/>
                </mxCell>
                <mxCell id="64" value="Title" style="rounded=0;whiteSpace=wrap;html=1;fillColor=none;" parent="88" vertex="1">
                    <mxGeometry x="313" y="615" width="168" height="41" as="geometry"/>
                </mxCell>
                <mxCell id="65" value="Title" style="rounded=0;whiteSpace=wrap;html=1;fillColor=none;" parent="88" vertex="1">
                    <mxGeometry x="75" y="423.6666666666665" width="168" height="41" as="geometry"/>
                </mxCell>
                <mxCell id="66" value="Title" style="rounded=0;whiteSpace=wrap;html=1;fillColor=none;" parent="88" vertex="1">
                    <mxGeometry x="313" y="423.6666666666665" width="168" height="41" as="geometry"/>
                </mxCell>
                <mxCell id="67" value="Title" style="rounded=0;whiteSpace=wrap;html=1;fillColor=none;" parent="88" vertex="1">
                    <mxGeometry x="75" y="615" width="168" height="41" as="geometry"/>
                </mxCell>
                <mxCell id="68" value="Code" style="rounded=0;whiteSpace=wrap;html=1;fillColor=none;" parent="88" vertex="1">
                    <mxGeometry x="75" y="259.66666666666663" width="168" height="95.66666666666666" as="geometry"/>
                </mxCell>
                <mxCell id="69" value="Description" style="rounded=0;whiteSpace=wrap;html=1;fillColor=none;" parent="88" vertex="1">
                    <mxGeometry x="75" y="259.66666666666663" width="168" height="27.33333333333333" as="geometry"/>
                </mxCell>
                <mxCell id="70" value="Description" style="rounded=0;whiteSpace=wrap;html=1;fillColor=none;" parent="88" vertex="1">
                    <mxGeometry x="313" y="259.66666666666663" width="168" height="27.33333333333333" as="geometry"/>
                </mxCell>
                <mxCell id="71" value="Code" style="rounded=0;whiteSpace=wrap;html=1;fillColor=none;" parent="88" vertex="1">
                    <mxGeometry x="313" y="287" width="168" height="68.33333333333333" as="geometry"/>
                </mxCell>
                <mxCell id="72" value="Description" style="rounded=0;whiteSpace=wrap;html=1;fillColor=none;" parent="88" vertex="1">
                    <mxGeometry x="313" y="656" width="168" height="27.33333333333333" as="geometry"/>
                </mxCell>
                <mxCell id="73" value="Code" style="rounded=0;whiteSpace=wrap;html=1;fillColor=none;" parent="88" vertex="1">
                    <mxGeometry x="313" y="683.3333333333333" width="168" height="68.33333333333333" as="geometry"/>
                </mxCell>
                <mxCell id="74" value="" style="rounded=0;whiteSpace=wrap;html=1;fillColor=none;" parent="88" vertex="1">
                    <mxGeometry x="75" y="464.6666666666665" width="168" height="27.33333333333333" as="geometry"/>
                </mxCell>
                <mxCell id="75" value="" style="rounded=0;whiteSpace=wrap;html=1;fillColor=none;" parent="88" vertex="1">
                    <mxGeometry x="75" y="464.6666666666665" width="168" height="95.66666666666666" as="geometry"/>
                </mxCell>
                <mxCell id="76" value="" style="rounded=0;whiteSpace=wrap;html=1;fillColor=none;" parent="88" vertex="1">
                    <mxGeometry x="313" y="464.6666666666665" width="168" height="27.33333333333333" as="geometry"/>
                </mxCell>
                <mxCell id="77" value="" style="rounded=0;whiteSpace=wrap;html=1;fillColor=none;" parent="88" vertex="1">
                    <mxGeometry x="313" y="464.6666666666665" width="168" height="95.66666666666666" as="geometry"/>
                </mxCell>
                <mxCell id="78" value="" style="rounded=0;whiteSpace=wrap;html=1;fillColor=none;" parent="88" vertex="1">
                    <mxGeometry x="75" y="656" width="168" height="27.33333333333333" as="geometry"/>
                </mxCell>
                <mxCell id="79" value="" style="rounded=0;whiteSpace=wrap;html=1;fillColor=none;" parent="88" vertex="1">
                    <mxGeometry x="75" y="656" width="168" height="95.66666666666666" as="geometry"/>
                </mxCell>
                <mxCell id="82" value="" style="rounded=0;whiteSpace=wrap;html=1;fillColor=none;" parent="88" vertex="1">
                    <mxGeometry x="25" y="198.16999999999996" width="510" height="594.5" as="geometry"/>
                </mxCell>
                <mxCell id="84" value="&lt;font style=&quot;font-size: 12px&quot;&gt;Footer&lt;/font&gt;" style="rounded=0;whiteSpace=wrap;html=1;fontSize=32;fillColor=none;" parent="88" vertex="1">
                    <mxGeometry x="25" y="830" width="510" height="60" as="geometry"/>
                </mxCell>
                <mxCell id="176" value="" style="group" vertex="1" connectable="0" parent="1">
                    <mxGeometry x="140" y="1580" width="560" height="1440" as="geometry"/>
                </mxCell>
                <mxCell id="90" value="" style="rounded=0;whiteSpace=wrap;html=1;fillColor=default;" vertex="1" parent="176">
                    <mxGeometry width="560" height="1440" as="geometry"/>
                </mxCell>
                <mxCell id="91" value="&lt;font style=&quot;font-size: 32px&quot;&gt;Header&lt;/font&gt;" style="rounded=0;whiteSpace=wrap;html=1;" vertex="1" parent="176">
                    <mxGeometry x="25" y="27.329999999999927" width="510" height="95.67" as="geometry"/>
                </mxCell>
                <mxCell id="92" value="Subheader / Description" style="rounded=0;whiteSpace=wrap;html=1;" vertex="1" parent="176">
                    <mxGeometry x="25" y="109.32999999999993" width="510" height="54.67" as="geometry"/>
                </mxCell>
                <mxCell id="93" value="" style="rounded=1;whiteSpace=wrap;html=1;" vertex="1" parent="176">
                    <mxGeometry x="68" y="218.67000000000007" width="424" height="150.33" as="geometry"/>
                </mxCell>
                <mxCell id="100" value="Title" style="rounded=0;whiteSpace=wrap;html=1;fillColor=none;" vertex="1" parent="176">
                    <mxGeometry x="82" y="218.67000000000007" width="390" height="41" as="geometry"/>
                </mxCell>
                <mxCell id="105" value="Code" style="rounded=0;whiteSpace=wrap;html=1;fillColor=none;" vertex="1" parent="176">
                    <mxGeometry x="82" y="290" width="390" height="65.33" as="geometry"/>
                </mxCell>
                <mxCell id="106" value="Description" style="rounded=0;whiteSpace=wrap;html=1;fillColor=none;" vertex="1" parent="176">
                    <mxGeometry x="82" y="259.6700000000001" width="390" height="27.33" as="geometry"/>
                </mxCell>
                <mxCell id="118" value="&lt;font style=&quot;font-size: 12px&quot;&gt;Footer&lt;/font&gt;" style="rounded=0;whiteSpace=wrap;html=1;fontSize=32;fillColor=none;" vertex="1" parent="176">
                    <mxGeometry x="25" y="1340" width="510" height="60" as="geometry"/>
                </mxCell>
                <mxCell id="139" value="" style="rounded=1;whiteSpace=wrap;html=1;" vertex="1" parent="176">
                    <mxGeometry x="68" y="400" width="424" height="150.33" as="geometry"/>
                </mxCell>
                <mxCell id="140" value="Code" style="rounded=0;whiteSpace=wrap;html=1;fillColor=none;" vertex="1" parent="176">
                    <mxGeometry x="82" y="471.3299999999999" width="390" height="65.33" as="geometry"/>
                </mxCell>
                <mxCell id="141" value="Description" style="rounded=0;whiteSpace=wrap;html=1;fillColor=none;" vertex="1" parent="176">
                    <mxGeometry x="82" y="441" width="390" height="27.33" as="geometry"/>
                </mxCell>
                <mxCell id="142" value="Title" style="rounded=0;whiteSpace=wrap;html=1;fillColor=none;" vertex="1" parent="176">
                    <mxGeometry x="82" y="400" width="390" height="41" as="geometry"/>
                </mxCell>
                <mxCell id="143" value="" style="rounded=1;whiteSpace=wrap;html=1;" vertex="1" parent="176">
                    <mxGeometry x="68" y="579.8299999999999" width="424" height="150.33" as="geometry"/>
                </mxCell>
                <mxCell id="144" value="Code" style="rounded=0;whiteSpace=wrap;html=1;fillColor=none;" vertex="1" parent="176">
                    <mxGeometry x="82" y="651.1599999999999" width="390" height="65.33" as="geometry"/>
                </mxCell>
                <mxCell id="145" value="Description" style="rounded=0;whiteSpace=wrap;html=1;fillColor=none;" vertex="1" parent="176">
                    <mxGeometry x="82" y="620.8299999999999" width="390" height="27.33" as="geometry"/>
                </mxCell>
                <mxCell id="146" value="Title" style="rounded=0;whiteSpace=wrap;html=1;fillColor=none;" vertex="1" parent="176">
                    <mxGeometry x="82" y="579.8299999999999" width="390" height="41" as="geometry"/>
                </mxCell>
                <mxCell id="147" value="" style="rounded=1;whiteSpace=wrap;html=1;" vertex="1" parent="176">
                    <mxGeometry x="68" y="760" width="424" height="150.33" as="geometry"/>
                </mxCell>
                <mxCell id="148" value="Code" style="rounded=0;whiteSpace=wrap;html=1;fillColor=none;" vertex="1" parent="176">
                    <mxGeometry x="82" y="831.3299999999999" width="390" height="65.33" as="geometry"/>
                </mxCell>
                <mxCell id="149" value="Description" style="rounded=0;whiteSpace=wrap;html=1;fillColor=none;" vertex="1" parent="176">
                    <mxGeometry x="82" y="801" width="390" height="27.33" as="geometry"/>
                </mxCell>
                <mxCell id="150" value="Title" style="rounded=0;whiteSpace=wrap;html=1;fillColor=none;" vertex="1" parent="176">
                    <mxGeometry x="82" y="760" width="390" height="41" as="geometry"/>
                </mxCell>
                <mxCell id="168" value="" style="rounded=1;whiteSpace=wrap;html=1;" vertex="1" parent="176">
                    <mxGeometry x="68" y="950" width="424" height="150.33" as="geometry"/>
                </mxCell>
                <mxCell id="169" value="Code" style="rounded=0;whiteSpace=wrap;html=1;fillColor=none;" vertex="1" parent="176">
                    <mxGeometry x="82" y="1021.3299999999999" width="390" height="65.33" as="geometry"/>
                </mxCell>
                <mxCell id="170" value="Description" style="rounded=0;whiteSpace=wrap;html=1;fillColor=none;" vertex="1" parent="176">
                    <mxGeometry x="82" y="991" width="390" height="27.33" as="geometry"/>
                </mxCell>
                <mxCell id="171" value="Title" style="rounded=0;whiteSpace=wrap;html=1;fillColor=none;" vertex="1" parent="176">
                    <mxGeometry x="82" y="950" width="390" height="41" as="geometry"/>
                </mxCell>
                <mxCell id="172" value="" style="rounded=1;whiteSpace=wrap;html=1;" vertex="1" parent="176">
                    <mxGeometry x="68" y="1140" width="424" height="150.33" as="geometry"/>
                </mxCell>
                <mxCell id="173" value="Code" style="rounded=0;whiteSpace=wrap;html=1;fillColor=none;" vertex="1" parent="176">
                    <mxGeometry x="82" y="1211.33" width="390" height="65.33" as="geometry"/>
                </mxCell>
                <mxCell id="174" value="Description" style="rounded=0;whiteSpace=wrap;html=1;fillColor=none;" vertex="1" parent="176">
                    <mxGeometry x="82" y="1181" width="390" height="27.33" as="geometry"/>
                </mxCell>
                <mxCell id="175" value="Title" style="rounded=0;whiteSpace=wrap;html=1;fillColor=none;" vertex="1" parent="176">
                    <mxGeometry x="82" y="1140" width="390" height="41" as="geometry"/>
                </mxCell>
            </root>
        </mxGraphModel>
    </diagram>
</mxfile>